<svg xmlns="http://www.w3.org/2000/svg" xmlns:xlink="http://www.w3.org/1999/xlink" width="500" zoomAndPan="magnify" viewBox="0 0 375 374.999991" height="500" preserveAspectRatio="xMidYMid meet" version="1.2"><defs><clipPath id="b5e4687fbd"><path d="M 23.3125 0 L 351.683594 0 L 351.683594 375 L 23.3125 375 Z M 23.3125 0 "/></clipPath></defs><g id="209b6e3b0e"><path style=" stroke:none;fill-rule:nonzero;fill:#000000;fill-opacity:1;" d="M 81.082031 125.898438 C 81.746094 124.675781 82.621094 123.464844 84.441406 122.546875 L 110.453125 107.523438 C 110.8125 107.316406 111.199219 107.160156 111.609375 107.058594 C 111.734375 107.027344 111.863281 107.027344 112.003906 107.003906 C 112.273438 106.957031 112.542969 106.910156 112.8125 106.910156 L 112.867188 106.910156 L 112.867188 106.921875 C 113.636719 106.933594 114.390625 107.144531 115.058594 107.523438 L 173.585938 141.320312 L 173.636719 141.21875 L 178.359375 143.953125 C 184.058594 147.238281 191.0625 147.238281 196.761719 143.953125 L 222.347656 129.183594 C 223.765625 128.359375 224.640625 126.839844 224.640625 125.195312 C 224.640625 123.550781 223.765625 122.03125 222.347656 121.210938 L 196.761719 106.449219 C 191.0625 103.160156 184.058594 103.160156 178.359375 106.449219 L 172.199219 110.003906 C 170.777344 110.824219 169.03125 110.824219 167.605469 110.003906 L 143.777344 96.25 C 142.351562 95.429688 141.480469 93.910156 141.480469 92.269531 C 141.480469 90.625 142.351562 89.105469 143.777344 88.285156 L 178.359375 68.3125 C 184.058594 65.03125 191.0625 65.03125 196.761719 68.3125 L 281.480469 117.230469 C 287.613281 120.773438 287.613281 129.617188 281.480469 133.160156 L 196.761719 182.074219 C 191.0625 185.359375 184.058594 185.359375 178.359375 182.074219 L 112.867188 144.257812 L 112.867188 230.402344 L 133.910156 242.589844 L 178.359375 268.332031 C 179.773438 269.140625 181.273438 269.757812 182.839844 270.179688 C 187.535156 271.425781 192.539062 270.757812 196.761719 268.332031 L 257.660156 233.171875 C 260.507812 231.53125 262.261719 228.488281 262.261719 225.203125 L 262.261719 174.992188 C 262.261719 173.351562 263.140625 171.824219 264.5625 171.015625 L 288.382812 157.246094 C 289.804688 156.425781 291.558594 156.425781 292.984375 157.246094 C 294.40625 158.066406 295.28125 159.59375 295.28125 161.234375 L 295.28125 244.273438 C 295.28125 247.558594 293.527344 250.585938 290.679688 252.242188 L 196.761719 306.46875 C 194.003906 308.058594 190.871094 308.894531 187.6875 308.921875 L 187.625 308.921875 C 187.175781 308.921875 186.726562 308.867188 186.277344 308.84375 C 185.929688 308.816406 185.585938 308.816406 185.238281 308.777344 C 184.761719 308.714844 184.289062 308.597656 183.828125 308.507812 C 183.503906 308.433594 183.183594 308.394531 182.878906 308.316406 C 182.363281 308.1875 181.875 307.996094 181.386719 307.816406 C 181.105469 307.714844 180.835938 307.648438 180.578125 307.546875 C 179.824219 307.238281 179.078125 306.878906 178.371094 306.46875 L 97.339844 259.683594 L 84.492188 252.394531 C 81.621094 250.765625 79.835938 247.710938 79.835938 244.402344 L 79.835938 130.503906 C 79.835938 128.859375 80.285156 127.277344 81.082031 125.898438 "/><g clip-rule="nonzero" clip-path="url(#b5e4687fbd)"><path style=" stroke:none;fill-rule:nonzero;fill:#ffbd59;fill-opacity:1;" d="M 178.589844 40.804688 C 181.324219 39.230469 184.402344 38.390625 187.5625 38.359375 C 190.703125 38.390625 193.796875 39.234375 196.53125 40.804688 L 309.703125 106.148438 C 315.378906 109.429688 318.878906 115.484375 318.878906 122.039062 L 318.878906 252.734375 C 318.878906 259.289062 315.382812 265.347656 309.703125 268.617188 L 196.53125 333.960938 C 193.757812 335.5625 190.628906 336.410156 187.433594 336.421875 C 184.238281 336.410156 181.09375 335.5625 178.320312 333.972656 L 65.644531 268.914062 C 59.972656 265.640625 56.46875 259.585938 56.46875 253.027344 L 56.46875 215.261719 C 56.480469 213.621094 55.597656 212.105469 54.183594 211.285156 L 30.1875 197.4375 C 28.777344 196.617188 27.019531 196.617188 25.609375 197.4375 C 24.183594 198.261719 23.3125 199.773438 23.3125 201.417969 L 23.3125 271.75 C 23.324219 274.753906 24.066406 277.703125 25.480469 280.347656 C 25.839844 282.078125 27.726562 284.121094 30.394531 286.210938 C 30.445312 286.261719 30.523438 286.3125 30.585938 286.363281 C 37.363281 291.640625 48.578125 297.078125 50.566406 298.234375 L 178.320312 371.992188 C 181.183594 373.636719 184.441406 374.484375 187.742188 374.445312 L 187.882812 374.445312 L 187.882812 374.429688 C 190.921875 374.355469 193.898438 373.507812 196.53125 371.992188 L 342.636719 287.636719 C 348.3125 284.363281 351.808594 278.308594 351.8125 271.75 L 351.8125 103.035156 C 351.8125 100.085938 351.4375 97.085938 350.144531 94.546875 C 349.96875 93.890625 348.195312 90.648438 344.546875 87.980469 C 343.171875 87.054688 340.742188 85.8125 338.464844 84.492188 L 196.941406 2.785156 C 194.089844 1.144531 190.84375 0.300781 187.558594 0.339844 C 184.261719 0.300781 181.027344 1.144531 178.179688 2.785156 L 47.585938 78.175781 C 47.292969 78.355469 47.0625 78.574219 46.804688 78.78125 L 45.148438 79.726562 C 40.710938 82.082031 33.753906 85.667969 29.980469 88.535156 L 29.675781 88.765625 C 29.621094 88.804688 29.570312 88.84375 29.519531 88.878906 C 29.390625 88.988281 29.300781 89.097656 29.171875 89.214844 C 27.789062 90.371094 26.605469 91.734375 25.695312 93.253906 C 25.671875 93.273438 25.65625 93.300781 25.632812 93.324219 L 25.644531 93.328125 C 24.117188 95.878906 23.308594 98.792969 23.308594 101.757812 L 23.308594 163.535156 C 23.308594 165.179688 24.183594 166.691406 25.605469 167.515625 L 49.601562 181.371094 C 51.015625 182.179688 52.773438 182.179688 54.183594 181.371094 C 55.609375 180.550781 56.480469 179.039062 56.480469 177.394531 L 56.480469 121.683594 C 56.480469 115.121094 59.984375 109.058594 65.667969 105.785156 L 178.589844 40.804688 L 178.589844 40.808594 Z M 178.589844 40.804688 "/></g></g></svg>