<svg xmlns="http://www.w3.org/2000/svg" xmlns:xlink="http://www.w3.org/1999/xlink" width="500" zoomAndPan="magnify" viewBox="0 0 375 374.999991" height="500" preserveAspectRatio="xMidYMid meet" version="1.2"><defs><clipPath id="d220fc34c6"><path d="M 187.5 0 C 83.945312 0 0 83.945312 0 187.5 C 0 291.054688 83.945312 375 187.5 375 C 291.054688 375 375 291.054688 375 187.5 C 375 83.945312 291.054688 0 187.5 0 Z M 187.5 0 "/></clipPath><clipPath id="203d888299"><path d="M 30.398438 8.167969 L 344.589844 8.167969 L 344.589844 366.667969 L 30.398438 366.667969 Z M 30.398438 8.167969 "/></clipPath></defs><g id="b9535a343f"><g clip-rule="nonzero" clip-path="url(#d220fc34c6)"><rect x="0" width="375" y="0" height="374.999991" style="fill:#ffffff;fill-opacity:1;stroke:none;"/></g><path style=" stroke:none;fill-rule:nonzero;fill:#000000;fill-opacity:1;" d="M 85.726562 128.574219 C 86.363281 127.402344 87.199219 126.25 88.941406 125.367188 L 113.816406 111 C 114.160156 110.804688 114.527344 110.652344 114.921875 110.554688 C 115.042969 110.523438 115.167969 110.523438 115.300781 110.503906 C 115.558594 110.460938 115.816406 110.414062 116.074219 110.414062 L 116.125 110.414062 L 116.125 110.425781 C 116.859375 110.4375 117.585938 110.636719 118.222656 111.003906 L 174.195312 143.324219 L 174.246094 143.226562 L 178.761719 145.839844 C 184.210938 148.980469 190.914062 148.980469 196.359375 145.839844 L 220.832031 131.714844 C 222.1875 130.925781 223.027344 129.476562 223.027344 127.902344 C 223.027344 126.332031 222.1875 124.878906 220.832031 124.089844 L 196.359375 109.972656 C 190.914062 106.828125 184.210938 106.828125 178.761719 109.972656 L 172.871094 113.375 C 171.507812 114.15625 169.839844 114.15625 168.476562 113.375 L 145.6875 100.21875 C 144.324219 99.433594 143.492188 97.980469 143.492188 96.410156 C 143.492188 94.839844 144.324219 93.386719 145.6875 92.601562 L 178.761719 73.5 C 184.210938 70.359375 190.914062 70.359375 196.359375 73.5 L 277.386719 120.285156 C 283.25 123.671875 283.25 132.132812 277.386719 135.519531 L 196.359375 182.300781 C 190.914062 185.441406 184.210938 185.441406 178.761719 182.300781 L 116.125 146.132812 L 116.125 228.519531 L 136.25 240.179688 L 178.761719 264.796875 C 180.113281 265.570312 181.546875 266.160156 183.046875 266.5625 C 187.539062 267.753906 192.324219 267.117188 196.359375 264.796875 L 254.605469 231.171875 C 257.328125 229.597656 259.007812 226.691406 259.003906 223.550781 L 259.003906 175.527344 C 259.003906 173.957031 259.847656 172.496094 261.203125 171.722656 L 283.988281 158.554688 C 285.347656 157.769531 287.023438 157.769531 288.386719 158.554688 C 289.75 159.339844 290.585938 160.800781 290.585938 162.371094 L 290.585938 241.785156 C 290.585938 244.929688 288.90625 247.824219 286.1875 249.40625 L 196.359375 301.269531 C 193.722656 302.792969 190.726562 303.589844 187.683594 303.613281 L 187.625 303.613281 C 187.195312 303.613281 186.765625 303.566406 186.335938 303.542969 C 186.003906 303.515625 185.671875 303.515625 185.339844 303.480469 C 184.886719 303.417969 184.433594 303.308594 183.992188 303.222656 C 183.683594 303.148438 183.378906 303.113281 183.082031 303.039062 C 182.589844 302.914062 182.125 302.730469 181.660156 302.558594 C 181.390625 302.460938 181.132812 302.398438 180.886719 302.300781 C 180.160156 302.007812 179.449219 301.664062 178.773438 301.269531 L 101.273438 256.523438 L 88.988281 249.554688 C 86.242188 247.996094 84.535156 245.074219 84.535156 241.910156 L 84.535156 132.976562 C 84.535156 131.40625 84.964844 129.894531 85.726562 128.574219 "/><g clip-rule="nonzero" clip-path="url(#203d888299)"><path style=" stroke:none;fill-rule:nonzero;fill:#ffbd59;fill-opacity:1;" d="M 178.984375 47.191406 C 181.597656 45.6875 184.542969 44.882812 187.5625 44.855469 C 190.570312 44.882812 193.527344 45.6875 196.140625 47.191406 L 304.378906 109.6875 C 309.808594 112.820312 313.152344 118.613281 313.152344 124.882812 L 313.152344 249.878906 C 313.15625 256.148438 309.808594 261.941406 304.378906 265.070312 L 196.140625 327.5625 C 193.488281 329.097656 190.496094 329.90625 187.4375 329.917969 C 184.382812 329.90625 181.375 329.097656 178.726562 327.574219 L 70.960938 265.351562 C 65.535156 262.222656 62.1875 256.429688 62.1875 250.160156 L 62.1875 214.042969 C 62.199219 212.472656 61.351562 211.023438 60.003906 210.238281 L 37.050781 196.996094 C 35.703125 196.210938 34.019531 196.210938 32.671875 196.996094 C 31.308594 197.78125 30.472656 199.230469 30.472656 200.800781 L 30.472656 268.066406 C 30.488281 270.9375 31.199219 273.757812 32.546875 276.289062 C 32.890625 277.945312 34.695312 279.894531 37.25 281.894531 C 37.296875 281.945312 37.371094 281.996094 37.433594 282.042969 C 43.914062 287.085938 54.640625 292.289062 56.542969 293.394531 L 178.726562 363.9375 C 181.460938 365.507812 184.578125 366.320312 187.734375 366.28125 L 187.867188 366.28125 L 187.867188 366.269531 C 190.777344 366.195312 193.625 365.386719 196.140625 363.9375 L 335.875 283.257812 C 341.304688 280.128906 344.648438 274.335938 344.648438 268.066406 L 344.648438 106.707031 C 344.648438 103.890625 344.292969 101.019531 343.054688 98.589844 C 342.886719 97.960938 341.191406 94.863281 337.703125 92.3125 C 336.386719 91.425781 334.0625 90.234375 331.886719 88.972656 L 196.53125 10.832031 C 193.808594 9.261719 190.703125 8.453125 187.5625 8.492188 C 184.40625 8.453125 181.3125 9.261719 178.589844 10.832031 L 53.691406 82.933594 C 53.410156 83.105469 53.191406 83.3125 52.945312 83.511719 L 51.359375 84.417969 C 47.113281 86.667969 40.464844 90.097656 36.855469 92.839844 L 36.558594 93.0625 C 36.511719 93.097656 36.460938 93.132812 36.414062 93.167969 C 36.289062 93.273438 36.203125 93.378906 36.082031 93.488281 C 34.757812 94.597656 33.628906 95.898438 32.753906 97.355469 C 32.730469 97.371094 32.71875 97.398438 32.695312 97.421875 L 32.707031 97.425781 C 31.246094 99.863281 30.472656 102.648438 30.472656 105.488281 L 30.472656 164.570312 C 30.472656 166.140625 31.308594 167.589844 32.667969 168.375 L 55.621094 181.628906 C 56.96875 182.402344 58.652344 182.402344 60 181.628906 C 61.363281 180.84375 62.199219 179.394531 62.199219 177.824219 L 62.199219 124.542969 C 62.199219 118.265625 65.546875 112.46875 70.984375 109.335938 L 178.980469 47.191406 L 178.980469 47.195312 Z M 178.984375 47.191406 "/></g></g></svg>