<svg xmlns="http://www.w3.org/2000/svg" xmlns:xlink="http://www.w3.org/1999/xlink" width="500" zoomAndPan="magnify" viewBox="0 0 375 374.999991" height="500" preserveAspectRatio="xMidYMid meet" version="1.2"><defs><filter x="0%" y="0%" width="100%" filterUnits="objectBoundingBox" id="3aff347ed8" height="100%"><feColorMatrix values="0 0 0 0 1 0 0 0 0 1 0 0 0 0 1 0 0 0 1 0" type="matrix" in="SourceGraphic"/></filter><clipPath id="4ec751089b"><path d="M 1.398438 0.398438 L 315.589844 0.398438 L 315.589844 358.667969 L 1.398438 358.667969 Z M 1.398438 0.398438 "/></clipPath><clipPath id="5f0468f257"><rect x="0" width="316" y="0" height="359"/></clipPath></defs><g id="553e8c7532"><g mask="url(#196d4fb2b4)" transform="matrix(1,0,0,1,29,8)"><g clip-path="url(#5f0468f257)"><path style=" stroke:none;fill-rule:nonzero;fill:#000000;fill-opacity:1;" d="M 56.726562 120.574219 C 57.363281 119.402344 58.199219 118.25 59.941406 117.367188 L 84.816406 103 C 85.160156 102.804688 85.527344 102.652344 85.921875 102.554688 C 86.042969 102.523438 86.167969 102.523438 86.300781 102.503906 C 86.558594 102.460938 86.816406 102.414062 87.074219 102.414062 L 87.125 102.414062 L 87.125 102.425781 C 87.859375 102.4375 88.585938 102.636719 89.222656 103.003906 L 145.195312 135.324219 L 145.246094 135.226562 L 149.761719 137.839844 C 155.210938 140.980469 161.914062 140.980469 167.359375 137.839844 L 191.832031 123.714844 C 193.1875 122.925781 194.027344 121.476562 194.027344 119.902344 C 194.027344 118.332031 193.1875 116.878906 191.832031 116.089844 L 167.359375 101.972656 C 161.914062 98.828125 155.210938 98.828125 149.761719 101.972656 L 143.871094 105.375 C 142.507812 106.15625 140.839844 106.15625 139.476562 105.375 L 116.6875 92.21875 C 115.324219 91.433594 114.492188 89.980469 114.492188 88.410156 C 114.492188 86.839844 115.324219 85.386719 116.6875 84.601562 L 149.761719 65.5 C 155.210938 62.359375 161.914062 62.359375 167.359375 65.5 L 248.386719 112.285156 C 254.25 115.671875 254.25 124.132812 248.386719 127.519531 L 167.359375 174.300781 C 161.914062 177.441406 155.210938 177.441406 149.761719 174.300781 L 87.125 138.132812 L 87.125 220.519531 L 107.25 232.179688 L 149.761719 256.796875 C 151.113281 257.570312 152.546875 258.160156 154.046875 258.5625 C 158.539062 259.753906 163.324219 259.117188 167.359375 256.796875 L 225.605469 223.171875 C 228.328125 221.597656 230.007812 218.691406 230.003906 215.550781 L 230.003906 167.527344 C 230.003906 165.957031 230.847656 164.496094 232.203125 163.722656 L 254.988281 150.554688 C 256.347656 149.769531 258.023438 149.769531 259.386719 150.554688 C 260.75 151.339844 261.585938 152.800781 261.585938 154.371094 L 261.585938 233.785156 C 261.585938 236.929688 259.90625 239.824219 257.1875 241.40625 L 167.359375 293.269531 C 164.722656 294.792969 161.726562 295.589844 158.683594 295.613281 L 158.625 295.613281 C 158.195312 295.613281 157.765625 295.566406 157.335938 295.542969 C 157.003906 295.515625 156.671875 295.515625 156.339844 295.480469 C 155.886719 295.417969 155.433594 295.308594 154.992188 295.222656 C 154.683594 295.148438 154.378906 295.113281 154.082031 295.039062 C 153.589844 294.914062 153.125 294.730469 152.660156 294.558594 C 152.390625 294.460938 152.132812 294.398438 151.886719 294.300781 C 151.160156 294.007812 150.449219 293.664062 149.773438 293.269531 L 72.273438 248.523438 L 59.988281 241.554688 C 57.242188 239.996094 55.535156 237.074219 55.535156 233.910156 L 55.535156 124.976562 C 55.535156 123.40625 55.964844 121.894531 56.726562 120.574219 "/><g clip-rule="nonzero" clip-path="url(#4ec751089b)"><path style=" stroke:none;fill-rule:nonzero;fill:#ffbd59;fill-opacity:1;" d="M 149.984375 39.191406 C 152.597656 37.6875 155.542969 36.882812 158.5625 36.855469 C 161.570312 36.882812 164.527344 37.6875 167.140625 39.191406 L 275.378906 101.6875 C 280.808594 104.820312 284.152344 110.613281 284.152344 116.882812 L 284.152344 241.878906 C 284.15625 248.148438 280.808594 253.941406 275.378906 257.070312 L 167.140625 319.5625 C 164.488281 321.097656 161.496094 321.90625 158.4375 321.917969 C 155.382812 321.90625 152.375 321.097656 149.726562 319.574219 L 41.960938 257.351562 C 36.535156 254.222656 33.1875 248.429688 33.1875 242.160156 L 33.1875 206.042969 C 33.199219 204.472656 32.351562 203.023438 31.003906 202.238281 L 8.050781 188.996094 C 6.703125 188.210938 5.019531 188.210938 3.671875 188.996094 C 2.308594 189.78125 1.472656 191.230469 1.472656 192.800781 L 1.472656 260.066406 C 1.488281 262.9375 2.199219 265.757812 3.546875 268.289062 C 3.890625 269.945312 5.695312 271.894531 8.25 273.894531 C 8.296875 273.945312 8.371094 273.996094 8.433594 274.042969 C 14.914062 279.085938 25.640625 284.289062 27.542969 285.394531 L 149.726562 355.9375 C 152.460938 357.507812 155.578125 358.320312 158.734375 358.28125 L 158.867188 358.28125 L 158.867188 358.269531 C 161.777344 358.195312 164.625 357.386719 167.140625 355.9375 L 306.875 275.257812 C 312.304688 272.128906 315.648438 266.335938 315.648438 260.066406 L 315.648438 98.707031 C 315.648438 95.890625 315.292969 93.019531 314.054688 90.589844 C 313.886719 89.960938 312.191406 86.863281 308.703125 84.3125 C 307.386719 83.425781 305.0625 82.234375 302.886719 80.972656 L 167.53125 2.832031 C 164.808594 1.261719 161.703125 0.453125 158.5625 0.492188 C 155.40625 0.453125 152.3125 1.261719 149.589844 2.832031 L 24.691406 74.933594 C 24.410156 75.105469 24.191406 75.3125 23.945312 75.511719 L 22.359375 76.417969 C 18.113281 78.667969 11.464844 82.097656 7.855469 84.839844 L 7.558594 85.0625 C 7.511719 85.097656 7.460938 85.132812 7.414062 85.167969 C 7.289062 85.273438 7.203125 85.378906 7.082031 85.488281 C 5.757812 86.597656 4.628906 87.898438 3.753906 89.355469 C 3.730469 89.371094 3.71875 89.398438 3.695312 89.421875 L 3.707031 89.425781 C 2.246094 91.863281 1.472656 94.648438 1.472656 97.488281 L 1.472656 156.570312 C 1.472656 158.140625 2.308594 159.589844 3.667969 160.375 L 26.621094 173.628906 C 27.96875 174.402344 29.652344 174.402344 31 173.628906 C 32.363281 172.84375 33.199219 171.394531 33.199219 169.824219 L 33.199219 116.542969 C 33.199219 110.265625 36.546875 104.46875 41.984375 101.335938 L 149.980469 39.191406 L 149.980469 39.195312 Z M 149.984375 39.191406 "/></g></g><mask id="196d4fb2b4"><g filter="url(#3aff347ed8)"><rect x="0" width="375" y="0" height="374.999991" style="fill:#000000;fill-opacity:0.3;stroke:none;"/></g></mask></g></g></svg>